<svg width="146" height="44" viewBox="0 0 146 44" fill="none" xmlns="http://www.w3.org/2000/svg">
<g clip-path="url(#clip0_14_443)">
<path fill-rule="evenodd" clip-rule="evenodd" d="M90.5755 34.3941C82.0912 40.6404 69.7938 43.973 59.2059 43.973C44.3599 43.973 30.9947 38.4884 20.8835 29.3666C20.0891 28.6493 20.8008 27.6718 21.7541 28.2304C32.6662 34.5718 46.1585 38.3869 60.0956 38.3869C69.4951 38.3869 79.8351 36.4444 89.3426 32.4136C90.7789 31.8042 91.9801 33.3531 90.5755 34.3941Z" fill="#FF9900"/>
<path fill-rule="evenodd" clip-rule="evenodd" d="M94.1026 30.3632C93.0222 28.9794 86.9339 29.7094 84.2011 30.0331C83.3685 30.1347 83.2414 29.411 83.9913 28.8905C88.8404 25.4817 96.7973 26.4657 97.7251 27.6083C98.653 28.7572 97.4836 36.7237 92.9269 40.5261C92.2278 41.1101 91.5605 40.799 91.8719 40.0246C92.8951 37.4728 95.1894 31.7534 94.1026 30.3632Z" fill="#FF9900"/>
<path fill-rule="evenodd" clip-rule="evenodd" d="M84.3919 4.82597V1.51241C84.3919 1.01093 84.7732 0.6745 85.2308 0.6745H100.083C100.56 0.6745 100.941 1.01728 100.941 1.51241V4.34989C100.935 4.82597 100.534 5.44806 99.8225 6.43197L92.1263 17.4074C94.9861 17.3375 98.0049 17.7628 100.598 19.2228C101.183 19.5529 101.341 20.0354 101.386 20.5114V24.0472C101.386 24.5296 100.852 25.0946 100.293 24.8026C95.7234 22.4094 89.6541 22.1492 84.6016 24.828C84.0868 25.1073 83.5466 24.5487 83.5466 24.0662V20.7082C83.5466 20.1687 83.553 19.2482 84.0932 18.4294L93.0096 5.65754H85.2498C84.7732 5.65754 84.3919 5.32111 84.3919 4.82597Z" fill="white"/>
<path fill-rule="evenodd" clip-rule="evenodd" d="M30.2129 25.5008H25.6943C25.2622 25.4691 24.919 25.1454 24.8872 24.7327V1.56956C24.8872 1.10617 25.2749 0.73799 25.7579 0.73799H29.9714C30.41 0.757021 30.7595 1.09347 30.7913 1.51242V4.54034H30.8739C31.9734 1.61399 34.0388 0.249207 36.8224 0.249207C39.6505 0.249207 41.4173 1.61399 42.6884 4.54034C43.7815 1.61399 46.2664 0.249207 48.9293 0.249207C50.8231 0.249207 52.895 1.02999 54.1597 2.78199C55.5896 4.73077 55.2973 7.56189 55.2973 10.0439L55.2909 24.6629C55.2909 25.1263 54.9032 25.5008 54.4202 25.5008H49.908C49.4568 25.4691 49.0945 25.1073 49.0945 24.6629V12.3862C49.0945 11.4087 49.1835 8.97111 48.9674 8.04433C48.6306 6.48912 47.6201 6.05111 46.3109 6.05111C45.2178 6.05111 44.0738 6.78111 43.6099 7.94912C43.1459 9.11712 43.1904 11.0722 43.1904 12.3862V24.6629C43.1904 25.1263 42.8028 25.5008 42.3198 25.5008H37.8075C37.3499 25.4691 36.994 25.1073 36.994 24.6629L36.9877 12.3862C36.9877 9.80268 37.4135 6.00033 34.2041 6.00033C30.9565 6.00033 31.0836 9.70746 31.0836 12.3862V24.6629C31.0836 25.1263 30.6959 25.5008 30.2129 25.5008Z" fill="white"/>
<path fill-rule="evenodd" clip-rule="evenodd" d="M113.728 0.249207C120.433 0.249207 124.061 6.00033 124.061 13.313C124.061 20.3781 120.051 25.9833 113.728 25.9833C107.144 25.9833 103.559 20.2321 103.559 13.0655C103.559 5.85433 107.188 0.249207 113.728 0.249207ZM113.766 4.97834C110.436 4.97834 110.226 9.51068 110.226 12.3355C110.226 15.1666 110.182 21.2097 113.728 21.2097C117.23 21.2097 117.395 16.3346 117.395 13.3638C117.395 11.4087 117.312 9.07268 116.721 7.21911C116.213 5.60677 115.202 4.97834 113.766 4.97834Z" fill="white"/>
<path fill-rule="evenodd" clip-rule="evenodd" d="M132.756 25.5008H128.256C127.805 25.4691 127.443 25.1073 127.443 24.6629L127.436 1.49338C127.474 1.06808 127.849 0.73799 128.307 0.73799H132.495C132.889 0.757021 133.213 1.02364 133.302 1.38547V4.92755H133.385C134.65 1.75999 136.423 0.249207 139.543 0.249207C141.57 0.249207 143.547 0.979207 144.818 2.97877C146 4.83233 146 7.94911 146 10.1899V24.7708C145.949 25.1771 145.574 25.5008 145.129 25.5008H140.598C140.185 25.4691 139.842 25.1644 139.797 24.7708V12.1895C139.797 9.65668 140.09 5.94955 136.969 5.94955C135.87 5.94955 134.859 6.6859 134.357 7.80311C133.722 9.21868 133.639 10.6279 133.639 12.1895V24.6629C133.633 25.1263 133.239 25.5008 132.756 25.5008Z" fill="white"/>
<path fill-rule="evenodd" clip-rule="evenodd" d="M72.5519 14.4366C72.5519 16.1949 72.5964 17.6613 71.7066 19.2229C70.9885 20.4924 69.8445 21.2732 68.5798 21.2732C66.8448 21.2732 65.828 19.9528 65.828 18.0041C65.828 14.1573 69.2789 13.459 72.5519 13.459V14.4366ZM77.1086 25.4374C76.8099 25.704 76.3778 25.723 76.0409 25.5453C74.5411 24.3011 74.2678 23.7235 73.448 22.5364C70.9694 25.0628 69.209 25.8182 65.9996 25.8182C62.1928 25.8182 59.2375 23.4759 59.2375 18.7849C59.2375 15.1222 61.2204 12.6275 64.0549 11.4087C66.508 10.3296 69.9335 10.1391 72.5519 9.84077V9.25677C72.5519 8.18399 72.6345 6.91442 71.999 5.98765C71.4524 5.15608 70.3974 4.8133 69.4632 4.8133C67.7409 4.8133 66.2093 5.69564 65.8343 7.52382C65.7581 7.93008 65.4594 8.32999 65.0463 8.34903L60.6675 7.87929C60.2989 7.79677 59.8858 7.49842 59.9938 6.93347C60.998 1.62669 65.8026 0.0270386 70.0987 0.0270386C72.2977 0.0270386 75.1703 0.611039 76.9052 2.27417C79.1042 4.32451 78.8945 7.06042 78.8945 10.0376V17.0709C78.8945 19.1848 79.7715 20.1115 80.5977 21.2542C80.8837 21.6604 80.9472 22.1492 80.5786 22.4539C79.6571 23.222 78.0174 24.6502 77.115 25.4501L77.1086 25.4374Z" fill="white"/>
<path fill-rule="evenodd" clip-rule="evenodd" d="M13.3143 14.4365C13.3143 16.1949 13.3588 17.6612 12.4691 19.2228C11.7509 20.4924 10.6133 21.2731 9.34227 21.2731C7.60728 21.2731 6.59679 19.9528 6.59679 18.004C6.59679 14.1572 10.0477 13.459 13.3143 13.459V14.4365ZM17.8711 25.4373C17.5724 25.7039 17.1402 25.723 16.8034 25.5452C15.3035 24.301 15.0366 23.7234 14.2104 22.5364C11.7319 25.0628 9.9778 25.8182 6.76202 25.8182C2.96156 25.8182 0 23.4758 0 18.7848C0 15.1221 1.9892 12.6274 4.81731 11.4086C7.27045 10.3295 10.6959 10.1391 13.3143 9.84071V9.25671C13.3143 8.18393 13.3969 6.91436 12.7678 5.98759C12.2149 5.15602 11.1599 4.81323 10.232 4.81323C8.50973 4.81323 6.97175 5.69558 6.59679 7.52375C6.52052 7.93002 6.22182 8.32993 5.81509 8.34897L1.42994 7.87923C1.06133 7.79671 0.654593 7.49836 0.756278 6.93341C1.76677 1.62663 6.56501 0.0269775 10.8612 0.0269775C13.0601 0.0269775 15.9327 0.610978 17.6677 2.27411C19.8666 4.32445 19.6569 7.06036 19.6569 10.0375V17.0709C19.6569 19.1847 20.5339 20.1115 21.3601 21.2541C21.6525 21.6604 21.716 22.1491 21.3474 22.4538C20.4259 23.2219 18.7862 24.6502 17.8838 25.45L17.8711 25.4373Z" fill="white"/>
</g>
<defs>
<clipPath id="clip0_14_443">
<rect width="146" height="43.946" fill="white" transform="translate(0 0.0269775)"/>
</clipPath>
</defs>
</svg>
