<svg width="106" height="62" viewBox="0 0 106 62" fill="none" xmlns="http://www.w3.org/2000/svg">
<path d="M84.875 45H106V62H84.75L79.5 57V50L84.875 45Z" fill="#FFF000"/>
<path d="M19 13.375L19.375 13.25C19.625 13.125 20 12.875 20.375 12.625C20.75 12.375 21.125 12 21.5 11.625C21.875 11.25 22.125 10.75 22.5 10C22.75 9.375 22.875 8.625 22.875 7.875C22.875 6 22 4.25 20.25 2.875C18.5 1.5 16.125 0.75 13.125 0.75H0V27.5H13.875C17.375 27.5 24.75 26.875 24.75 19.875C24.75 14.5 19.125 13.375 19 13.375ZM8.625 7H11.875C12.5 7 13 7.125 13.5 7.625C13.875 8 14.125 8.5 14.125 9C14.125 9.5 13.875 10 13.5 10.375C13 10.75 12.5 11 11.875 11H8.625V7ZM14.625 20.625C14.125 21.125 13.5 21.375 12.75 21.375H8.625V16.625H12.75C13.5 16.625 14.125 16.875 14.625 17.375C15.125 17.875 15.375 18.375 15.375 19.125C15.375 19.625 15.125 20.125 14.625 20.625Z" fill="white"/>
<path d="M25.875 43L26.25 42.875C26.5 42.75 26.875 42.5 27.25 42.25C27.625 42 28 41.625 28.375 41.25C28.75 40.875 29 40.375 29.375 39.625C29.625 39 29.75 38.25 29.75 37.5C29.75 35.625 28.875 33.875 27.125 32.5C25.375 31.125 23 30.375 20 30.375H6.875V57.125H20.625C24.125 57.125 31.5 56.5 31.5 49.5C31.625 44.125 26 43.125 25.875 43ZM15.625 36.625H18.75C19.375 36.625 19.875 36.875 20.375 37.25C20.75 37.625 21 38.125 21 38.625C21 39.125 20.75 39.625 20.375 40C20 40.375 19.5 40.625 18.75 40.625H15.625V36.625ZM21.5 50.25C21 50.75 20.375 51 19.625 51H15.625V46.25H19.625C20.375 46.25 21 46.5 21.5 47C22 47.5 22.25 48 22.25 48.75C22.25 49.25 22 49.75 21.5 50.25Z" fill="white"/>
<path d="M46.875 21H34V16.875H44.5V10.75H34V7.25H46.875V0.75H25.25V27.5H46.875V21Z" fill="white"/>
<path d="M69 0.75V7.25H76.125V27.5H84.75V7.25H91.75V0.75H69Z" fill="white"/>
<path d="M59.25 20.625C58.75 21 58.125 21.25 57.25 21.25C56.375 21.25 55.5 21 54.625 20.5C53.75 20 53.125 19.625 52.75 19.375C52.625 19.25 52.375 19.125 52.25 19L47.125 23.875L47.5 24.25C47.75 24.625 48.25 25 48.875 25.375C49.5 25.875 50.25 26.25 51.125 26.75C52 27.25 53 27.625 54.375 27.875C55.625 28.25 57 28.375 58.375 28.375C61.75 28.375 64.5 27.5 66.5 25.75C68.5 24 69.5 21.875 69.5 19.375C69.5 18 69.25 16.625 68.625 15.625C68 14.5 67.375 13.75 66.5 13.125C65.625 12.625 64.75 12.125 63.75 11.625C62.875 11.25 62 10.875 61.125 10.75C61 10.75 61 10.75 60.875 10.75C60 10.5 59.25 10.25 58.75 9.875C58.125 9.5 57.875 9.25 57.875 8.75C57.875 8.25 58.125 7.875 58.5 7.5C58.875 7.125 59.5 7 60.25 7C62 7 63.125 7.75 63.625 8.375L68.75 3.5L68.625 3.375C68.375 3.125 68 2.75 67.5 2.375C67 2 66.375 1.625 65.625 1.25C64.875 0.875 64 0.5 62.75 0.25C61.5 0.125 60.25 0 59 0C55.75 0 53.25 0.875 51.25 2.5C49.25 4.25 48.25 6.25 48.25 8.5C48.25 9.75 48.5 10.875 48.875 11.75C49.25 12.75 49.875 13.5 50.5 14.125C51.125 14.75 51.875 15.25 52.75 15.625C53.5 16 54.125 16.25 54.875 16.5C55 16.5 55.125 16.625 55.25 16.625C56.125 16.875 56.875 17.125 57.5 17.375C58.125 17.625 58.75 17.875 59.125 18.125C59.5 18.375 59.75 18.75 59.75 19C60 19.75 59.75 20.25 59.25 20.625Z" fill="white"/>
<path d="M46.875 46.25C46.875 48 45.5 49.5 43.625 49.5C41.875 49.5 40.375 48.125 40.375 46.25V30.375H31.75V45.875C31.75 52.25 36.875 57.5 43.375 57.5H43.875C50.25 57.5 55.5 52.375 55.5 45.875V30.375H46.875V46.25Z" fill="white"/>
<path d="M70.25 39.5L64.625 30.375H56L66 47.625V57.125H74.625V47.625L84.625 30.375H76L70.25 39.5Z" fill="white"/>
<path d="M83.75 53.5C83.75 54.125 83.25 54.5 82.75 54.5C82.25 54.5 81.75 54 81.75 53.5C81.75 52.875 82.25 52.5 82.75 52.5C83.25 52.5 83.75 52.875 83.75 53.5Z" fill="white"/>
<path d="M84.875 38.125H84.25V37.875H85.75V38.125H85.125V40H84.875V38.125ZM86.125 37.875H86.5L87.125 39.5L87.75 37.875H88.125V39.875H87.875V38.125L87.125 39.875H87L86.25 38.125V39.875H86V37.875H86.125Z" fill="white"/>
</svg>
