<svg width="105" height="34" viewBox="0 0 105 34" fill="none" xmlns="http://www.w3.org/2000/svg">
<g clip-path="url(#clip0_25_66)">
<path d="M36.8839 24.716C35.2519 24.716 33.8199 24.364 32.5879 23.66C31.3719 22.956 30.4359 21.948 29.7799 20.636C29.1239 19.324 28.7959 17.788 28.7959 16.028C28.7959 14.268 29.1239 12.74 29.7799 11.444C30.4359 10.132 31.3719 9.12401 32.5879 8.42001C33.8199 7.71601 35.2519 7.36401 36.8839 7.36401C37.9399 7.36401 38.9319 7.52401 39.8599 7.84401C40.7879 8.14801 41.6119 8.59601 42.3319 9.18801C42.5399 9.34801 42.6839 9.51601 42.7639 9.69201C42.8439 9.86801 42.8839 10.084 42.8839 10.34C42.8839 10.692 42.7879 10.988 42.5959 11.228C42.4039 11.468 42.1719 11.588 41.8999 11.588C41.5799 11.588 41.2519 11.476 40.9159 11.252C40.2279 10.74 39.5879 10.388 38.9959 10.196C38.4039 9.98801 37.7479 9.88401 37.0279 9.88401C35.3639 9.88401 34.0999 10.404 33.2359 11.444C32.3879 12.484 31.9639 14.012 31.9639 16.028C31.9639 18.06 32.3879 19.596 33.2359 20.636C34.0999 21.676 35.3639 22.196 37.0279 22.196C37.7159 22.196 38.3479 22.092 38.9239 21.884C39.5159 21.676 40.1799 21.324 40.9159 20.828C41.0759 20.732 41.2359 20.652 41.3959 20.588C41.5559 20.524 41.7239 20.492 41.8999 20.492C42.1719 20.492 42.4039 20.612 42.5959 20.852C42.7879 21.092 42.8839 21.388 42.8839 21.74C42.8839 21.98 42.8439 22.196 42.7639 22.388C42.6839 22.564 42.5399 22.732 42.3319 22.892C41.6119 23.484 40.7879 23.94 39.8599 24.26C38.9319 24.564 37.9399 24.716 36.8839 24.716ZM50.4432 24.692C49.2432 24.692 48.1872 24.444 47.2752 23.948C46.3792 23.452 45.6832 22.74 45.1872 21.812C44.6912 20.884 44.4432 19.804 44.4432 18.572C44.4432 17.34 44.6912 16.268 45.1872 15.356C45.6832 14.428 46.3792 13.716 47.2752 13.22C48.1872 12.724 49.2432 12.476 50.4432 12.476C51.6432 12.476 52.6912 12.724 53.5872 13.22C54.4992 13.716 55.1952 14.428 55.6752 15.356C56.1712 16.268 56.4192 17.34 56.4192 18.572C56.4192 19.804 56.1712 20.884 55.6752 21.812C55.1952 22.74 54.4992 23.452 53.5872 23.948C52.6912 24.444 51.6432 24.692 50.4432 24.692ZM50.4192 22.364C51.3952 22.364 52.1392 22.044 52.6512 21.404C53.1632 20.764 53.4192 19.82 53.4192 18.572C53.4192 17.34 53.1632 16.404 52.6512 15.764C52.1392 15.108 51.4032 14.78 50.4432 14.78C49.4832 14.78 48.7392 15.108 48.2112 15.764C47.6992 16.404 47.4432 17.34 47.4432 18.572C47.4432 19.82 47.6992 20.764 48.2112 21.404C48.7232 22.044 49.4592 22.364 50.4192 22.364ZM68.1598 12.524C68.6238 12.524 68.9918 12.652 69.2638 12.908C69.5358 13.164 69.6718 13.508 69.6718 13.94V23.252C69.6718 23.668 69.5278 24.004 69.2398 24.26C68.9678 24.516 68.6078 24.644 68.1598 24.644C67.7278 24.644 67.3838 24.524 67.1278 24.284C66.8718 24.044 66.7438 23.716 66.7438 23.3V22.7C66.3758 23.34 65.8798 23.836 65.2558 24.188C64.6318 24.524 63.9278 24.692 63.1438 24.692C60.2638 24.692 58.8238 23.076 58.8238 19.844V13.94C58.8238 13.508 58.9598 13.164 59.2318 12.908C59.5038 12.652 59.8638 12.524 60.3118 12.524C60.7758 12.524 61.1438 12.652 61.4158 12.908C61.6878 13.164 61.8238 13.508 61.8238 13.94V19.868C61.8238 20.7 61.9918 21.316 62.3278 21.716C62.6638 22.116 63.1918 22.316 63.9118 22.316C64.7438 22.316 65.4078 22.044 65.9038 21.5C66.4158 20.94 66.6718 20.204 66.6718 19.292V13.94C66.6718 13.508 66.8078 13.164 67.0798 12.908C67.3518 12.652 67.7118 12.524 68.1598 12.524ZM79.5383 12.476C80.5463 12.476 81.4423 12.732 82.2263 13.244C83.0263 13.756 83.6423 14.484 84.0743 15.428C84.5223 16.356 84.7463 17.428 84.7463 18.644C84.7463 19.86 84.5223 20.924 84.0743 21.836C83.6423 22.748 83.0343 23.452 82.2503 23.948C81.4663 24.444 80.5623 24.692 79.5383 24.692C78.7063 24.692 77.9623 24.516 77.3063 24.164C76.6503 23.812 76.1463 23.324 75.7943 22.7V27.596C75.7943 28.012 75.6583 28.34 75.3863 28.58C75.1143 28.82 74.7543 28.94 74.3063 28.94C73.8583 28.94 73.4903 28.812 73.2023 28.556C72.9303 28.3 72.7943 27.964 72.7943 27.548V13.94C72.7943 13.508 72.9223 13.164 73.1783 12.908C73.4503 12.652 73.8103 12.524 74.2583 12.524C74.7063 12.524 75.0663 12.652 75.3383 12.908C75.6103 13.164 75.7463 13.508 75.7463 13.94V14.54C76.0983 13.884 76.6023 13.38 77.2583 13.028C77.9303 12.66 78.6903 12.476 79.5383 12.476ZM78.7463 22.364C79.6903 22.364 80.4263 22.044 80.9543 21.404C81.4823 20.748 81.7463 19.828 81.7463 18.644C81.7463 17.428 81.4823 16.484 80.9543 15.812C80.4263 15.14 79.6903 14.804 78.7463 14.804C77.7863 14.804 77.0423 15.132 76.5143 15.788C76.0023 16.444 75.7463 17.38 75.7463 18.596C75.7463 19.796 76.0023 20.724 76.5143 21.38C77.0423 22.036 77.7863 22.364 78.7463 22.364ZM88.6963 24.644C88.2643 24.644 87.9043 24.524 87.6163 24.284C87.3443 24.028 87.2083 23.668 87.2083 23.204V8.87601C87.2083 8.41201 87.3443 8.06001 87.6163 7.82001C87.9043 7.58001 88.2643 7.46001 88.6963 7.46001C89.1283 7.46001 89.4883 7.58001 89.7763 7.82001C90.0643 8.06001 90.2083 8.41201 90.2083 8.87601V23.204C90.2083 23.668 90.0643 24.028 89.7763 24.284C89.4883 24.524 89.1283 24.644 88.6963 24.644ZM101.486 13.388C101.614 13.1 101.782 12.892 101.99 12.764C102.214 12.62 102.454 12.548 102.71 12.548C103.078 12.548 103.406 12.676 103.694 12.932C103.998 13.172 104.15 13.476 104.15 13.844C104.15 14.02 104.102 14.204 104.006 14.396L97.4541 28.124C97.1821 28.668 96.7581 28.94 96.1821 28.94C95.8141 28.94 95.4861 28.82 95.1981 28.58C94.9261 28.356 94.7901 28.068 94.7901 27.716C94.7901 27.54 94.8381 27.34 94.9341 27.116L96.5661 23.684L92.1021 14.396C92.0221 14.236 91.9821 14.052 91.9821 13.844C91.9821 13.476 92.1341 13.164 92.4381 12.908C92.7581 12.652 93.1181 12.524 93.5181 12.524C93.7901 12.524 94.0381 12.596 94.2621 12.74C94.4861 12.868 94.6621 13.076 94.7901 13.364L98.1501 20.78L101.486 13.388Z" fill="black"/>
<mask id="mask0_25_66" style="mask-type:luminance" maskUnits="userSpaceOnUse" x="0" y="6" width="22" height="22">
<path d="M21.5 6.5H0.5V27.5H21.5V6.5Z" fill="white"/>
</mask>
<g mask="url(#mask0_25_66)">
<path d="M11.6912 24.875L3.125 16.3087V18.0587C3.125 18.5225 3.30875 18.9687 3.64125 19.2925L10.4575 26.1087C11.14 26.7912 12.2513 26.7912 12.9338 26.1087L18.3675 20.675C19.05 19.9925 19.05 18.8812 18.3675 18.1987L11.6912 24.875Z" fill="black"/>
<path d="M10.4575 21.7337C11.14 22.4162 12.2513 22.4162 12.9338 21.7337L18.3675 16.3C19.05 15.6175 19.05 14.5063 18.3675 13.8238L11.5513 7.0075C11.2189 6.68314 10.7732 6.50109 10.3088 6.5H4.875C3.9125 6.5 3.125 7.2875 3.125 8.25V13.6838C3.125 14.1475 3.30875 14.5938 3.64125 14.9175L10.4575 21.7337ZM6.84375 9.125C7.13383 9.125 7.41203 9.24023 7.61715 9.44535C7.82227 9.65047 7.9375 9.92867 7.9375 10.2188C7.9375 10.5088 7.82227 10.787 7.61715 10.9921C7.41203 11.1973 7.13383 11.3125 6.84375 11.3125C6.55367 11.3125 6.27547 11.1973 6.07035 10.9921C5.86523 10.787 5.75 10.5088 5.75 10.2188C5.75 9.92867 5.86523 9.65047 6.07035 9.44535C6.27547 9.24023 6.55367 9.125 6.84375 9.125Z" fill="black"/>
</g>
</g>
<defs>
<clipPath id="clip0_25_66">
<rect width="104" height="33" fill="white" transform="translate(0.5 0.5)"/>
</clipPath>
</defs>
</svg>
