<svg width="164" height="48" viewBox="0 0 164 48" fill="none" xmlns="http://www.w3.org/2000/svg">
<g clip-path="url(#clip0_14_464)">
<path d="M35.375 9.4018C35.3433 9.16834 35.1414 9.03882 34.9738 9.02472C34.8075 9.01062 31.5493 8.96062 31.5493 8.96062C31.5493 8.96062 28.8244 6.28774 28.5552 6.01584C28.2861 5.74394 27.7604 5.82602 27.556 5.88758C27.5534 5.88887 27.0443 6.0479 26.1872 6.31596C26.0437 5.84654 25.8329 5.26938 25.532 4.68966C24.5619 2.81969 23.1411 1.83083 21.4243 1.82827C21.4218 1.82827 21.4205 1.82827 21.418 1.82827C21.2986 1.82827 21.1806 1.83982 21.0613 1.85007C21.0105 1.78851 20.9597 1.72823 20.9063 1.66923C20.1584 0.861218 19.1998 0.467471 18.0507 0.5021C15.8337 0.566229 13.6257 2.18354 11.8353 5.05648C10.5757 7.0778 9.61704 9.61731 9.34533 11.5834C6.79948 12.3799 5.01929 12.9365 4.97993 12.9494C3.69495 13.3572 3.65432 13.397 3.48672 14.6206C3.36228 15.5452 0 41.8071 0 41.8071L28.1769 46.7295L40.3892 43.6629C40.3892 43.6629 35.4068 9.63526 35.375 9.4018ZM24.7765 6.75716C24.1277 6.9598 23.3899 7.19067 22.59 7.44077C22.5735 6.30698 22.4402 4.72943 21.917 3.36606C23.5994 3.68799 24.4273 5.61055 24.7765 6.75716ZM21.1158 7.90248C19.6391 8.36418 18.0278 8.86823 16.4114 9.3736C16.866 7.61519 17.7282 5.8645 18.7872 4.7166C19.1808 4.28951 19.7318 3.81368 20.3844 3.54177C20.9977 4.83459 21.1311 6.66481 21.1158 7.90248ZM18.0951 1.99243C18.6157 1.98089 19.0537 2.09633 19.4284 2.34514C18.829 2.65937 18.25 3.11083 17.7066 3.69953C16.2984 5.22578 15.2191 7.59467 14.7887 9.8802C13.4466 10.2996 12.1336 10.7113 10.9248 11.0884C11.688 7.49079 14.6731 2.09248 18.0951 1.99243Z" fill="#95BF47"/>
<path d="M34.975 9.02603C34.8087 9.01193 31.5506 8.96192 31.5506 8.96192C31.5506 8.96192 28.8257 6.28904 28.5565 6.01714C28.4562 5.91581 28.3204 5.86323 28.1781 5.84143L28.1794 46.7283L40.3905 43.6629C40.3905 43.6629 35.4081 9.63657 35.3763 9.40311C35.3445 9.16965 35.1414 9.04013 34.975 9.02603Z" fill="#5E8E3E"/>
<path d="M21.4091 15.3683L19.9909 20.7281C19.9909 20.7281 18.4088 20.0009 16.5334 20.1202C13.783 20.2959 13.7538 22.0479 13.7818 22.4878C13.9316 24.8849 20.1749 25.4082 20.5254 31.0233C20.8009 35.4404 18.2055 38.4621 14.4662 38.7007C9.97763 38.9867 7.50671 36.3125 7.50671 36.3125L8.45777 32.2263C8.45777 32.2263 10.9452 34.122 12.9361 33.995C14.2364 33.9116 14.7011 32.8432 14.6541 32.0878C14.4586 28.9609 9.37449 29.1456 9.05328 24.0076C8.78279 19.6842 11.5941 15.3029 17.7967 14.9079C20.1864 14.7527 21.4091 15.3683 21.4091 15.3683Z" fill="white"/>
<path d="M56.4711 26.5917C55.0669 25.8221 54.3452 25.1733 54.3452 24.2815C54.3452 23.1468 55.3477 22.4179 56.9132 22.4179C58.7355 22.4179 60.3626 23.1875 60.3626 23.1875L61.6459 19.216C61.6459 19.216 60.4658 18.2836 56.9925 18.2836C52.1589 18.2836 48.809 21.0796 48.809 25.0104C48.809 27.2392 50.3731 28.9412 52.4599 30.1561C54.145 31.128 54.747 31.8175 54.747 32.8301C54.747 33.8834 53.9045 34.7344 52.3403 34.7344C50.0091 34.7344 47.8077 33.5183 47.8077 33.5183L46.4438 37.4898C46.4438 37.4898 48.4778 38.8675 51.8995 38.8675C56.8741 38.8675 60.4445 36.3958 60.4445 31.9383C60.4432 29.5493 58.6385 27.8472 56.4711 26.5917Z" fill="white"/>
<path d="M76.289 18.2441C73.8418 18.2441 71.9162 19.4196 70.4327 21.2018L70.352 21.1611L72.4779 9.93732H66.9416L61.5665 38.5037H67.1028L68.9478 28.739C69.6694 25.0512 71.5547 22.783 73.3204 22.783C74.5634 22.783 75.0458 23.634 75.0458 24.8502C75.0458 25.6198 74.9652 26.5523 74.8052 27.3219L72.7197 38.505H78.2562L80.4218 26.9568C80.6628 25.7406 80.8238 24.2829 80.8238 23.3097C80.8215 20.1485 79.1769 18.2441 76.289 18.2441Z" fill="white"/>
<path d="M93.3374 18.2441C86.6775 18.2441 82.2662 24.3223 82.2662 31.0886C82.2662 35.424 84.9131 38.9083 89.888 38.9083C96.4267 38.9083 100.839 32.993 100.839 26.0638C100.839 22.0528 98.5121 18.2441 93.3374 18.2441ZM90.6096 34.6149C88.724 34.6149 87.9216 32.9942 87.9216 30.9677C87.9216 27.7671 89.5669 22.5401 92.5753 22.5401C94.5411 22.5401 95.1818 24.2421 95.1818 25.9035C95.1818 29.3471 93.5388 34.6149 90.6096 34.6149Z" fill="white"/>
<path d="M115 18.2441C111.263 18.2441 109.142 21.5669 109.142 21.5669H109.063L109.384 18.5685H104.49C104.25 20.595 103.807 23.6735 103.367 25.9837L99.516 46.4454H105.052L106.576 38.1793H106.697C106.697 38.1793 107.833 38.9083 109.946 38.9083C116.445 38.9083 120.696 32.1826 120.696 25.3743C120.696 21.6076 119.051 18.2441 115 18.2441ZM109.705 34.695C108.267 34.695 107.417 33.8847 107.417 33.8847L108.34 28.6576C108.982 25.1733 110.787 22.8632 112.713 22.8632C114.398 22.8632 114.919 24.4431 114.919 25.943C114.919 29.5493 112.793 34.695 109.705 34.695Z" fill="white"/>
<path d="M128.599 10.221C126.835 10.221 125.43 11.6394 125.43 13.4623C125.43 15.1237 126.473 16.2584 128.038 16.2584H128.118C129.843 16.2584 131.327 15.083 131.367 13.0171C131.367 11.3964 130.284 10.221 128.599 10.221Z" fill="white"/>
<path d="M120.857 38.5037H126.392L130.164 18.6906H124.587L120.857 38.5037Z" fill="white"/>
<path d="M144.245 18.6499H140.393L140.593 17.7175C140.914 15.8131 142.038 14.111 143.883 14.111C144.868 14.111 145.647 14.3947 145.647 14.3947L146.73 10.0187C146.73 10.0187 145.768 9.53278 143.721 9.53278C141.756 9.53278 139.791 10.1001 138.306 11.3964C136.421 13.0171 135.538 15.3666 135.097 17.7175L134.938 18.6499H132.369L131.567 22.8644H134.135L131.207 38.505H136.743L139.672 22.8644H143.483L144.245 18.6499Z" fill="white"/>
<path d="M157.562 18.6907C157.562 18.6907 154.101 27.4974 152.547 32.3048H152.467C152.361 30.7566 151.103 18.6907 151.103 18.6907H145.286L148.617 36.883C148.698 37.2876 148.657 37.5318 148.496 37.8155C147.853 39.0711 146.771 40.2872 145.487 41.179C144.444 41.9485 143.281 42.4345 142.359 42.7589L143.883 47.5C145.007 47.2571 147.332 46.3246 149.298 44.461C151.826 42.0707 154.152 38.3829 156.558 33.358L163.338 18.6894H157.562V18.6907Z" fill="white"/>
</g>
<defs>
<clipPath id="clip0_14_464">
<rect width="164" height="47" fill="white" transform="translate(0 0.5)"/>
</clipPath>
</defs>
</svg>
