<svg width="116" height="110" viewBox="0 0 116 110" fill="none" xmlns="http://www.w3.org/2000/svg">
<path d="M53.5904 1.26641C53.7383 3.51762 53.7054 5.78526 53.4918 8.02005C53.4589 8.29939 53.4425 8.57874 53.3932 8.84166C53.3767 8.97312 53.3603 9.10458 53.3439 9.23604C53.3275 9.43322 53.3932 8.92383 53.3439 9.21961C53.3275 9.30177 53.3274 9.40036 53.311 9.48252C53.2289 10.0412 53.1303 10.5999 53.0317 11.1586C52.8181 12.276 52.5387 13.3934 52.2101 14.4779C52.0458 14.9873 51.8814 15.4967 51.7007 16.0061C51.6021 16.2526 51.5199 16.4991 51.4049 16.7456C51.3884 16.7949 51.3227 16.877 51.3227 16.9428C51.3227 16.7784 51.4213 16.7291 51.3556 16.8442C51.2899 16.9756 51.2406 17.1071 51.1748 17.2385C50.7805 18.1094 50.3039 18.9475 49.7781 19.7362C49.6631 19.917 49.5316 20.0977 49.4002 20.2785C49.3344 20.3771 49.2522 20.4757 49.1865 20.5743C49.1536 20.6071 49.1208 20.6564 49.1043 20.6893C49.2687 20.3935 49.1701 20.6071 49.1208 20.6729C48.825 21.0508 48.4964 21.4287 48.1678 21.7903C47.8391 22.1353 47.5104 22.464 47.1489 22.7926C46.9846 22.9405 46.8039 23.0884 46.6231 23.2363C46.541 23.302 46.4588 23.3678 46.3767 23.4335C46.2452 23.5321 46.6231 23.2363 46.4259 23.4006C46.3602 23.4499 46.3109 23.4828 46.2452 23.5321C45.8179 23.8443 45.3742 24.1401 44.9141 24.403C44.454 24.6659 43.9776 24.8631 43.501 25.1096C43.5175 25.0931 43.7803 24.9945 43.5996 25.0603C43.5338 25.0931 43.4681 25.1096 43.4024 25.1424C43.271 25.1917 43.1395 25.241 42.9916 25.2903C42.7451 25.3725 42.4986 25.4546 42.2357 25.5204C41.7263 25.6683 41.2005 25.7669 40.6747 25.8326C40.3953 25.8654 40.0667 26.1612 39.9352 26.3913C39.8037 26.6378 39.7545 26.9007 39.7873 27.18C39.8695 27.7716 40.3789 28.2481 41.0033 28.2481C42.2028 28.2317 43.4024 28.2317 44.6019 28.3138C44.8813 28.3303 45.1442 28.3631 45.4235 28.396C45.44 28.396 45.7358 28.4453 45.5386 28.4124C45.325 28.3796 45.6207 28.4289 45.6536 28.4289C45.8015 28.4453 45.9494 28.4782 46.0973 28.511C46.6888 28.6261 47.264 28.774 47.8227 28.9547C47.9213 28.9876 48.0363 29.0369 48.1349 29.0697C48.1842 29.0862 48.2499 29.119 48.2992 29.1355C48.3978 29.1683 48.4964 29.2669 48.2335 29.1026C48.4307 29.2341 48.6771 29.2998 48.8908 29.4148C49.3016 29.6284 49.696 29.8585 50.0575 30.1214C50.1561 30.1871 50.2546 30.2529 50.3532 30.335C50.3861 30.3679 50.4354 30.4007 50.4683 30.4172C50.6326 30.5322 50.4025 30.3679 50.3861 30.3514C50.5504 30.5158 50.764 30.6637 50.9448 30.8116C51.3063 31.1402 51.6513 31.4688 51.98 31.8303C52.1279 31.9947 52.2758 32.159 52.4072 32.3233C52.473 32.4055 52.5387 32.4876 52.6209 32.5862C52.7195 32.7177 52.4401 32.3398 52.588 32.5369C52.6373 32.6027 52.6701 32.652 52.7194 32.7177C52.9988 33.0956 53.2453 33.49 53.4918 33.8844C53.7383 34.2952 53.9684 34.7224 54.182 35.1496C54.2806 35.3633 54.3791 35.5769 54.4777 35.7905C54.4942 35.8398 54.5106 35.8891 54.5434 35.922C54.412 35.6098 54.4941 35.7905 54.527 35.8727C54.5763 36.0041 54.6256 36.1192 54.6749 36.2506C55.0529 37.2365 55.3322 38.2389 55.5458 39.2577C55.6115 39.5535 55.6608 39.8328 55.7101 40.1286C55.7266 40.2436 55.743 40.3751 55.7758 40.4901C55.7923 40.5887 55.8087 40.6709 55.8087 40.7695C55.8087 40.7202 55.7923 40.6709 55.7923 40.6216C55.7923 40.6873 55.8087 40.7366 55.8087 40.8023C55.8745 41.3939 55.9402 41.969 55.9731 42.5606C56.1538 45.2719 55.9895 47.9997 55.8087 50.6945C55.7759 51.3025 56.3017 51.8284 56.8768 51.9105C57.4848 51.9927 58.0435 51.6147 58.2242 51.0232C59.5224 46.8987 59.6867 42.5441 60.6562 38.3539C60.8699 37.4173 61.1163 36.4807 61.445 35.5605C61.5107 35.3633 61.5929 35.1661 61.6586 34.9853C61.6915 34.8867 61.7572 34.7882 61.7901 34.6731C61.7901 34.6896 61.675 34.9525 61.7572 34.7717C61.7736 34.7224 61.8065 34.6567 61.823 34.6074C62.0037 34.213 62.1844 33.8351 62.3816 33.4571C62.776 32.7013 63.2361 31.9782 63.7455 31.3045C63.7783 31.2717 63.8112 31.2223 63.8276 31.1895C63.6633 31.436 63.7126 31.3374 63.7619 31.2716C63.8277 31.1895 63.8934 31.1073 63.9591 31.0252C64.0906 30.8608 64.2384 30.6965 64.3863 30.5322C64.6657 30.22 64.9615 29.9242 65.2573 29.6613C65.438 29.497 65.6023 29.3491 65.7995 29.2012C65.8324 29.1683 65.8653 29.1519 65.9146 29.119C65.6188 29.3491 65.8324 29.1848 65.8817 29.1355C65.9803 29.0697 66.0625 29.004 66.161 28.9383C66.5226 28.6918 66.9005 28.4617 67.2949 28.2646C67.3934 28.2153 67.5085 28.166 67.607 28.1167C67.6563 28.1002 67.6893 28.0838 67.7386 28.0674C67.9686 27.9688 67.492 28.1659 67.7057 28.0838C67.9193 28.0016 68.1329 27.9195 68.3629 27.8538C68.593 27.788 68.8066 27.7223 69.0367 27.673C69.1353 27.6566 69.2503 27.6237 69.3489 27.6073C69.4475 27.5908 69.9075 27.5251 69.4803 27.5744C69.809 27.5251 70.1212 27.4758 70.3513 27.2129C70.532 27.0157 70.6471 26.7856 70.6964 26.5063C70.7785 25.9476 70.4169 25.2739 69.809 25.1589C69.3324 25.0603 68.8559 24.9452 68.3794 24.7973C68.1658 24.7316 67.9685 24.6495 67.7549 24.5837C67.6399 24.5344 67.5249 24.4851 67.4099 24.4523C67.7879 24.6002 67.3605 24.4194 67.262 24.3865C66.391 23.9757 65.5531 23.4828 64.7808 22.9076C64.7479 22.8748 64.6986 22.8419 64.6657 22.8255C64.5014 22.694 64.7314 22.8748 64.7479 22.8912C64.6657 22.809 64.5507 22.7433 64.4521 22.6612C64.2549 22.4968 64.0741 22.349 63.8934 22.1846C63.5318 21.856 63.1703 21.5109 62.8417 21.133C62.5131 20.7715 62.2009 20.4099 61.8887 20.032C61.8558 19.9827 61.8229 19.9334 61.7736 19.8841C61.79 19.9006 61.9544 20.1142 61.823 19.9498C61.7408 19.8512 61.675 19.7527 61.5928 19.6541C61.4449 19.4569 61.2971 19.2433 61.1657 19.0461C60.6234 18.2409 60.1468 17.3864 59.7196 16.5155C59.621 16.3019 59.5224 16.1047 59.4238 15.8911C59.391 15.8418 59.3746 15.7761 59.3581 15.7268C59.276 15.546 59.3909 15.7925 59.3909 15.8089C59.3416 15.661 59.2759 15.5296 59.2266 15.3981C59.0459 14.9544 58.8815 14.4943 58.7172 14.0342C58.027 12.0131 57.5177 9.92619 57.1069 7.82287C56.8768 6.65618 56.6632 5.47306 56.4825 4.28994C56.4003 3.73124 56.3182 3.18898 56.236 2.63029C56.2031 2.35094 56.1538 2.08803 56.1209 1.80868C56.1045 1.71008 56.0388 1.24998 56.1045 1.66078C56.0881 1.51289 56.0717 1.38144 56.0552 1.23355C56.0059 0.888473 55.9402 0.609117 55.6937 0.362634C55.4801 0.149015 55.135 -0.0152991 54.8228 0.00113309C54.5106 0.0175653 54.1655 0.116151 53.9519 0.362634C53.7382 0.62555 53.5411 0.954194 53.5904 1.26641C54.1655 5.58808 54.8228 9.95905 56.1538 14.1164C57.4356 18.0766 59.5224 21.856 62.7924 24.5016C64.6493 25.9969 66.7855 27.1472 69.1353 27.5908C69.2503 26.7856 69.3489 25.9805 69.4639 25.1753C68.4451 25.3068 67.5085 25.5697 66.5554 25.9805C65.7174 26.342 64.945 26.8349 64.222 27.4101C62.8088 28.511 61.6422 29.9406 60.722 31.4688C59.7525 33.0628 59.0459 34.821 58.5693 36.6285C57.9942 38.7647 57.6656 40.9667 57.3369 43.1521C56.9754 45.617 56.5974 48.0818 55.8416 50.4645C56.6467 50.5795 57.452 50.6781 58.2571 50.7931C58.5693 45.9292 58.8487 40.8352 57.2055 36.152C55.8416 32.2412 53.1631 28.5768 49.2687 26.9335C46.6559 25.8326 43.7968 25.7997 41.0033 25.8326C41.1183 26.6378 41.2169 27.4429 41.3319 28.2481C45.4729 27.673 49.0058 24.9945 51.4213 21.7081C54.0998 18.0601 55.2665 13.4756 55.8252 9.03886C56.1538 6.459 56.2195 3.86269 56.0388 1.28283C55.9895 0.641978 55.4965 0.0175533 54.8064 0.0504177C54.1819 0.06685 53.5411 0.576253 53.5904 1.26641Z" fill="#231F20"/>
<path d="M7.95783 34.6732C8.23717 35.9056 8.48366 37.1544 8.69728 38.4033C8.8123 39.0113 8.91094 39.6193 8.9931 40.2272C9.0424 40.5395 9.09167 40.8352 9.12453 41.1474C9.14096 41.2789 9.15736 41.4268 9.17379 41.5583C9.20666 41.7883 9.17379 41.5747 9.17379 41.5418C9.19023 41.6404 9.20669 41.739 9.20669 41.854C9.53534 44.3353 9.73249 46.8166 9.83108 49.3143C9.88038 50.3824 9.88044 51.434 9.81472 52.5021C9.79828 52.7486 9.78179 52.9951 9.74892 53.2416C9.73249 53.373 9.71609 53.5045 9.69966 53.6359C9.68323 53.7674 9.73252 53.866 9.69966 53.6031C9.71609 53.6852 9.66676 53.7838 9.66676 53.866C9.5846 54.3754 9.48601 54.8684 9.33812 55.3613C9.27239 55.6078 9.19024 55.8379 9.10808 56.0843C9.07522 56.1829 9.00954 56.298 8.9931 56.3966C9.05883 56.1501 9.05878 56.2651 9.02592 56.3308C8.99306 56.413 8.96018 56.4787 8.92731 56.5609C8.69726 57.0374 8.43436 57.4811 8.12215 57.9083C8.03999 58.0069 7.97427 58.1219 7.89211 58.2205C7.90855 58.1877 8.05647 58.0069 7.92501 58.1712C7.89215 58.2205 7.85925 58.2698 7.80995 58.3027C7.64563 58.5163 7.46484 58.7299 7.28409 58.9436C6.93901 59.3379 6.56112 59.7323 6.18318 60.1102C5.77237 60.521 5.34509 60.899 4.90142 61.2769C4.67136 61.4741 4.44135 61.6713 4.19486 61.852C4.14557 61.9013 4.07984 61.9506 4.03054 61.9835C3.99768 61.9999 3.80049 62.1643 3.94838 62.0492C4.1127 61.9342 3.88265 62.0985 3.86622 62.115C3.80049 62.1643 3.71836 62.2136 3.65263 62.2793C2.6667 63.0023 1.6479 63.676 0.61267 64.3169C0.169 64.5962 -0.126844 65.1878 0.0539105 65.7136C0.218233 66.2066 0.694799 66.6503 1.23706 66.6174C2.27229 66.5517 3.30752 66.5024 4.35918 66.5517C5.04934 66.5845 5.73949 66.6503 6.41321 66.7324C6.79115 66.7653 7.15263 66.7982 7.53057 66.831C7.6456 66.831 7.76064 66.8474 7.87566 66.8639C7.90853 66.8639 7.92496 66.8639 7.95783 66.8803C8.08928 66.8968 8.0564 66.8967 7.85922 66.8639C7.89208 66.8803 7.97431 66.8803 8.00717 66.8803C8.27009 66.9296 8.53297 66.9789 8.79589 67.0611C9.02594 67.1268 9.256 67.209 9.46962 67.2911C9.53535 67.3076 9.58466 67.3404 9.65039 67.3568C9.81472 67.4226 9.35456 67.2254 9.60105 67.3404C9.73251 67.4061 9.84758 67.4554 9.97904 67.5212C10.4391 67.7512 10.8664 68.0141 11.2772 68.3099C11.3265 68.3428 11.3757 68.3921 11.425 68.4249C11.6058 68.5564 11.3758 68.3921 11.3593 68.3757C11.4086 68.4578 11.5893 68.5564 11.6551 68.6221C11.8687 68.8029 12.0659 68.9836 12.2631 69.1644C12.641 69.5259 13.019 69.9203 13.3476 70.3146C13.512 70.5118 13.6763 70.709 13.8242 70.9062C13.6598 70.6762 14.0049 71.1363 13.8242 70.9062C13.857 70.9555 13.8899 70.9884 13.9228 71.0377C14.0214 71.1691 14.1199 71.3006 14.2021 71.432C14.5143 71.8757 14.81 72.3194 15.0894 72.7795C15.6974 73.7818 16.2561 74.8335 16.7655 75.8852C17.0449 76.4603 17.3242 77.0519 17.5871 77.627C17.6529 77.7584 17.7022 77.8899 17.7679 78.0214C17.8008 78.0871 17.8336 78.1693 17.8665 78.235C17.9487 78.4486 17.8665 78.2514 17.8501 78.2021C17.9979 78.5308 18.113 78.8594 18.2444 79.188C19.3125 81.8829 20.1341 84.66 20.7092 87.5028C20.8243 88.1108 21.498 88.4558 22.0567 88.3901C22.714 88.3079 23.0591 87.7985 23.1248 87.1741C23.6999 82.228 22.451 77.3148 22.7468 72.3522C22.7633 71.9579 22.8126 71.5635 22.8454 71.1856C22.8619 71.087 22.8783 70.9884 22.8783 70.8898C22.8948 70.7254 22.829 71.2349 22.8619 70.9884C22.8619 70.9391 22.8783 70.9062 22.8783 70.8569C22.9112 70.6433 22.944 70.4297 22.9769 70.2161C23.1248 69.378 23.3219 68.54 23.552 67.7348C23.6834 67.3076 23.8149 66.8803 23.9628 66.4531C24.0285 66.2559 24.0943 66.0751 24.1765 65.8944C24.2093 65.7958 24.2586 65.6972 24.2914 65.5986C24.3736 65.4178 24.2586 65.6808 24.2422 65.6972C24.275 65.6315 24.2915 65.5657 24.3243 65.5C24.6694 64.7277 25.0638 63.9718 25.5403 63.2652C25.6553 63.0845 25.7868 62.9037 25.9183 62.723C25.9347 62.6901 26.0826 62.5094 25.9347 62.6901C25.8032 62.8709 25.9511 62.6737 25.984 62.6408C26.0497 62.5586 26.1154 62.4765 26.1976 62.3943C26.4769 62.0657 26.7892 61.7535 27.1178 61.4741C27.2 61.392 27.2986 61.3262 27.3807 61.2605C27.4958 61.1619 27.1507 61.4248 27.2821 61.3427C27.3314 61.3098 27.3807 61.2769 27.43 61.2276C27.6108 61.1126 27.7751 60.9976 27.9723 60.8826C28.1531 60.784 28.3338 60.6854 28.5146 60.6032C28.5474 60.5868 28.7446 60.5046 28.531 60.5868C28.3338 60.6689 28.4982 60.6032 28.5474 60.5868C28.6625 60.5375 28.7774 60.5046 28.8925 60.4718C29.3854 60.3074 29.8291 59.8309 29.7962 59.2886C29.7634 58.7299 29.4347 58.2863 28.8925 58.1055C26.7891 57.3989 24.5873 57.1031 22.4675 56.4294C22.221 56.3473 21.9746 56.2651 21.7281 56.1665C21.6788 56.1501 21.6294 56.1336 21.5801 56.1172C21.5473 56.1008 21.3337 55.9857 21.5144 56.0843C21.6952 56.1829 21.4816 56.0679 21.4487 56.0515C21.383 56.0186 21.3008 55.9858 21.2351 55.9529C20.7586 55.7393 20.3149 55.4763 19.8876 55.1806C19.8219 55.1313 19.7561 55.082 19.6904 55.0491C19.5425 54.9505 19.7233 55.0984 19.7562 55.0984C19.7069 55.1148 19.4932 54.8848 19.4439 54.8355C19.2303 54.6383 19.0167 54.4411 18.8195 54.2275C18.6552 54.0468 18.4909 53.8496 18.3266 53.6524C18.2444 53.5538 18.1623 53.4552 18.0801 53.3566C18.2937 53.6031 18.1623 53.4552 18.113 53.3895C18.0637 53.3237 18.0144 53.2416 17.9487 53.1758C17.3571 52.3707 16.8641 51.5162 16.4204 50.6289C16.3054 50.3988 16.2068 50.1852 16.1082 49.9551C16.0589 49.8565 16.0097 49.7579 15.9768 49.6429C15.9439 49.5936 15.9275 49.5279 15.8946 49.4786C15.796 49.2485 15.9932 49.7086 15.8946 49.495C15.6975 49.0185 15.5166 48.5255 15.3359 48.049C14.5964 46.0114 14.0213 43.9081 13.3805 41.8376C12.4931 39.0441 11.4579 36.3 10.1105 33.7037C9.81468 33.1285 8.96024 32.9149 8.41798 33.26C7.82642 33.6379 7.66206 34.3281 7.97427 34.9525C8.30292 35.5769 8.61516 36.2178 8.91094 36.8586C9.0424 37.1544 9.19027 37.4502 9.3053 37.746C9.28887 37.7131 9.20669 37.4995 9.28885 37.7131C9.32172 37.7789 9.3546 37.861 9.38746 37.9267C9.45319 38.0911 9.51887 38.2554 9.5846 38.4033C10.0447 39.5535 10.4555 40.7202 10.8335 41.9033C11.5236 44.0231 12.1152 46.1757 12.8382 48.279C13.5284 50.2838 14.3664 52.2721 15.566 54.0303C16.2069 54.9669 16.9298 55.92 17.8172 56.643C18.7702 57.4482 19.8219 58.0233 20.9886 58.467C23.322 59.3708 25.8526 59.6337 28.2188 60.4225C28.2188 59.6337 28.2188 58.845 28.2188 58.0398C24.6366 59.19 22.5825 62.7558 21.4487 66.108C20.8571 67.8334 20.4956 69.6409 20.3149 71.4485C20.0848 73.7818 20.2491 76.1481 20.4463 78.4815C20.6764 81.3571 20.9557 84.2327 20.6271 87.1084C21.4323 86.9934 22.2375 86.8948 23.0427 86.7797C22.5168 84.1999 21.7773 81.6529 20.8571 79.188C19.9205 76.7068 18.8195 74.2584 17.4885 71.9579C16.3547 70.0189 14.9908 68.1292 13.249 66.6996C12.296 65.9272 11.31 65.3028 10.1597 64.8592C9.14093 64.4483 8.07287 64.3333 6.98834 64.2347C6.19959 64.169 5.42731 64.0704 4.63856 64.0211C3.47188 63.9554 2.32159 64.0047 1.1549 64.0704C1.36852 64.8427 1.56568 65.5986 1.77929 66.3709C3.7183 65.1714 5.60802 63.8568 7.30054 62.2957C8.97662 60.7347 10.5377 58.9436 11.3758 56.7909C12.181 54.7205 12.3124 52.4035 12.2631 50.1852C12.2138 47.671 12.0166 45.1569 11.7208 42.6756C11.3757 39.7507 10.8827 36.8258 10.2419 33.9501C10.094 33.3257 9.33816 32.8985 8.73017 33.0957C8.15504 33.375 7.7935 33.9994 7.95783 34.6732Z" fill="#231F20"/>
<path d="M72.6022 67.7676C72.8323 68.6713 73.0131 69.5751 73.1445 70.5117C73.1281 70.3967 73.1116 70.2981 73.0952 70.1831C73.3417 72.0071 73.3746 73.8804 73.1281 75.7043C73.1445 75.5893 73.1609 75.4907 73.1774 75.3757C72.9802 76.8546 72.6022 78.3006 72.0271 79.6645C72.0764 79.5659 72.1093 79.4673 72.1586 79.3687C71.8793 80.026 71.5671 80.6669 71.1891 81.2749C71.0084 81.5871 70.7947 81.8993 70.5811 82.1951C70.4825 82.3265 70.3839 82.458 70.2853 82.5894C70.5483 82.2444 70.3346 82.5237 70.2689 82.6059C70.2032 82.688 70.1374 82.7702 70.0717 82.8359C69.6116 83.3946 69.0858 83.904 68.5435 84.3806C68.4121 84.4956 68.2642 84.6106 68.1327 84.7256C68.0505 84.7914 67.7712 85.005 68.1163 84.7421C68.0341 84.7913 67.9684 84.8571 67.8862 84.9228C67.574 85.1529 67.2454 85.3665 66.9167 85.5801C66.2923 85.958 65.6679 86.2867 64.9941 86.566C65.0927 86.5167 65.1913 86.4839 65.2899 86.4346C64.8134 86.6318 64.3369 86.8289 63.8603 87.0426C63.5317 87.1905 63.2195 87.3219 62.973 87.5684C62.4143 88.0942 62.5129 88.998 63.088 89.4417C63.3838 89.6717 63.7782 89.7374 64.1233 89.836C64.7148 90.0168 65.3063 90.2304 65.8815 90.4769C65.7829 90.4276 65.6843 90.3947 65.5857 90.3454C67.1468 91.0192 68.6585 91.8572 70.006 92.876C70.0388 92.9089 70.0717 92.9253 70.1046 92.9582C69.8252 92.7445 69.9402 92.8431 70.006 92.876C70.0881 92.9417 70.1538 92.991 70.236 93.0568C70.3839 93.1718 70.5318 93.3032 70.6633 93.4183C70.9097 93.6483 71.1562 93.8784 71.3863 94.1413C71.5013 94.2563 71.5999 94.3878 71.7149 94.5192C71.7642 94.585 71.8135 94.6507 71.8628 94.7164C71.9121 94.7821 71.9943 94.8972 71.7642 94.6014C71.7971 94.6507 71.8299 94.6836 71.8628 94.7329C72.06 94.9958 72.2572 95.2751 72.4215 95.5709C72.8488 96.2446 73.1938 96.9676 73.5224 97.7071C73.4732 97.6085 73.4403 97.5099 73.391 97.4113C74.5741 100.238 75.1164 103.278 75.6422 106.285C75.7736 107.09 75.9216 107.895 76.0694 108.7C76.1187 108.98 76.3981 109.308 76.6281 109.44C76.8746 109.571 77.1376 109.62 77.4169 109.588C78.0249 109.505 78.4686 108.996 78.485 108.372C78.5343 107.008 78.5836 105.644 78.6329 104.264C78.6822 102.949 78.6822 101.618 78.8629 100.303C78.8465 100.418 78.8301 100.517 78.8137 100.632C78.978 99.4982 79.2244 98.3644 79.5202 97.2634C79.6681 96.7211 79.8324 96.1789 79.9967 95.6366C80.1446 95.193 80.2761 94.7328 80.4569 94.2892C80.4076 94.3878 80.3747 94.4864 80.3254 94.585C80.5554 94.0591 80.8513 93.5662 81.1963 93.1061C81.2456 93.0403 81.2949 92.9746 81.3442 92.8924C81.4592 92.7445 81.1306 93.1554 81.3113 92.9253C81.4263 92.7774 81.5414 92.6459 81.6564 92.4981C81.87 92.2351 82.1001 91.9887 82.3301 91.7422C82.8231 91.2328 83.3489 90.7398 83.8912 90.2633C84.0227 90.1482 84.1541 90.0497 84.2856 89.9346C84.3513 89.8853 84.417 89.836 84.4828 89.7703C84.5156 89.7374 84.5485 89.7046 84.5977 89.6881C84.5485 89.721 84.3513 89.8853 84.4992 89.7539C84.7621 89.5567 85.0415 89.3595 85.3044 89.1623C85.8466 88.8008 86.4053 88.4557 87.0133 88.2092C86.9147 88.2585 86.8162 88.2914 86.7176 88.3407C86.7669 88.3243 86.8161 88.3078 86.8654 88.275C87.1612 88.16 87.4406 87.9956 87.6049 87.7163C87.7364 87.4698 87.7856 87.2069 87.7528 86.9275C87.6706 86.3196 87.1612 85.8595 86.5368 85.8595C86.2575 85.8595 85.9781 85.843 85.7152 85.8101C85.8302 85.8266 85.9288 85.843 86.0438 85.8595C85.5016 85.7773 84.9593 85.6294 84.4499 85.4158C84.5485 85.4651 84.6471 85.4979 84.7457 85.5472C84.4335 85.4158 84.1376 85.2679 83.8583 85.0871C83.7104 85.005 83.579 84.9064 83.4311 84.8242C83.3654 84.7749 83.2832 84.7256 83.2175 84.6763C83.1846 84.6599 83.1517 84.627 83.1189 84.6106C83.1024 84.5942 83.086 84.5777 83.0696 84.5777C82.9546 84.4791 83.2339 84.7092 83.2175 84.6927C82.6588 84.2326 82.1329 83.7397 81.64 83.1974C81.5249 83.0495 81.3935 82.9181 81.2785 82.7702C81.2292 82.7045 81.1635 82.6223 81.1142 82.5566C80.9827 82.3922 81.2456 82.7209 81.1963 82.6552C81.1635 82.6059 81.1306 82.573 81.0977 82.5237C80.8512 82.2115 80.6376 81.8828 80.4075 81.5542C79.9474 80.864 79.5367 80.141 79.1588 79.4016C78.7151 78.5471 78.3043 77.6598 77.9263 76.7724C77.9756 76.871 78.0085 76.9696 78.0578 77.0682C76.9568 74.4555 76.1023 71.7277 75.3957 68.9671C75.2314 68.3263 75.0835 67.7018 74.9356 67.061C74.7877 66.4366 74.0318 66.0093 73.4238 66.2065C72.7994 66.4694 72.4379 67.0938 72.6022 67.7676C72.9473 69.2629 73.3253 70.7582 73.7689 72.2371C74.2783 73.9625 74.8699 75.6879 75.5437 77.364C76.2667 79.1222 77.0719 80.864 78.0907 82.4744C78.9944 83.9204 80.0789 85.3336 81.4099 86.4017C82.0508 86.9111 82.7245 87.3876 83.4804 87.7163C84.3184 88.0778 85.1401 88.3078 86.0603 88.39C86.241 88.4064 86.4217 88.4064 86.5861 88.4064C86.471 87.6013 86.3724 86.7961 86.2574 85.9909C84.91 86.5167 83.7433 87.3384 82.6259 88.2421C81.5085 89.1459 80.4569 90.1647 79.5696 91.2985C79.1259 91.8572 78.715 92.4159 78.3864 93.0568C78.0085 93.8126 77.762 94.6342 77.5155 95.4394C76.924 97.3949 76.4474 99.3832 76.2995 101.421C76.2173 102.571 76.2009 103.738 76.1681 104.888C76.1352 106.071 76.0859 107.238 76.053 108.421C76.8582 108.306 77.6634 108.207 78.4686 108.092C77.877 104.822 77.4333 101.503 76.3816 98.3479C75.8394 96.754 75.1657 95.1601 74.1797 93.7798C73.6868 93.0732 73.1281 92.4159 72.5037 91.8243C71.7807 91.167 70.9755 90.5755 70.1538 90.0497C69.2501 89.4581 68.297 88.9323 67.3111 88.4886C66.7524 88.2257 66.1773 87.9956 65.5857 87.782C65.1092 87.6177 64.6326 87.4862 64.1561 87.3384C64.2547 87.3876 64.3533 87.4205 64.4519 87.4698C64.5998 87.6177 64.7312 87.7491 64.8791 87.897C64.9284 87.9956 64.9613 88.0942 65.0106 88.1928C65.027 88.3078 65.0434 88.4064 65.0599 88.5215C65.0434 88.6365 65.027 88.7351 65.0106 88.8501C64.9613 88.9487 64.9284 89.0473 64.8791 89.1459C64.7805 89.2938 64.6491 89.4745 64.5012 89.5403C64.534 89.5238 64.5505 89.5074 64.5833 89.491C64.6655 89.4417 64.7477 89.4088 64.8298 89.3595C65.0599 89.2445 65.3063 89.1459 65.5528 89.0473C65.4542 89.0966 65.3557 89.1295 65.2571 89.1788C65.9308 88.8994 66.6209 88.6201 67.2782 88.275C68.0341 87.8806 68.7407 87.4205 69.4144 86.9111C70.844 85.8101 72.0764 84.512 73.0459 83.0002C74.9192 80.1246 75.7408 76.641 75.7572 73.2395C75.7572 71.2019 75.4779 69.1479 74.9849 67.176C74.8206 66.5516 74.0976 66.1079 73.4732 66.3215C72.8159 66.4694 72.4215 67.0938 72.6022 67.7676Z" fill="#231F20"/>
<path d="M89.2484 24.173C89.3799 24.781 89.4949 25.3889 89.5935 25.9969C89.6428 26.2927 89.6921 26.6049 89.7414 26.9171C89.7578 27.0157 89.84 27.4758 89.7742 27.1143C89.8071 27.2951 89.8236 27.4758 89.84 27.6402C89.9879 28.889 90.1029 30.1543 90.1687 31.4196C90.3001 33.9666 90.2836 36.53 90.1029 39.0605C90.0536 39.685 90.0043 40.3094 89.955 40.9503C89.9221 41.2296 89.9057 41.5254 89.8728 41.8047C89.8564 41.9362 89.84 42.0676 89.8236 42.2155C89.8236 42.2813 89.8071 42.347 89.8071 42.3963C89.7907 42.4949 89.8071 42.4456 89.8236 42.2484C89.8236 42.2977 89.8071 42.347 89.8071 42.3963C89.6592 43.448 89.4292 44.4832 89.1498 45.502C89.0019 46.0114 88.8376 46.5208 88.6569 47.0138C88.5583 47.2602 88.4761 47.5067 88.3775 47.7532C88.3611 47.8189 88.3282 47.8682 88.3118 47.934C88.4104 47.6217 88.3611 47.8025 88.3282 47.8846C88.2625 48.0161 88.2132 48.164 88.1475 48.2955C87.7038 49.265 87.1944 50.1852 86.5864 51.0725C86.4221 51.319 86.2414 51.5655 86.0606 51.7955C86.0113 51.8613 85.9127 51.9434 86.1099 51.7298C86.0606 51.7955 85.9948 51.8613 85.9455 51.927C85.847 52.042 85.7648 52.157 85.6662 52.2721C85.2882 52.7157 84.8939 53.1265 84.4667 53.5373C84.253 53.7345 84.0394 53.9317 83.8094 54.1289C83.6943 54.2275 83.5629 54.3097 83.4643 54.4083C83.6779 54.1946 83.5958 54.3096 83.5136 54.3754C83.4479 54.4247 83.3821 54.474 83.2999 54.5233C82.8234 54.8683 82.3141 55.197 81.7882 55.4763C81.3281 55.7228 81.0651 56.3637 81.2295 56.8731C81.2952 57.0703 81.3939 57.2674 81.5417 57.4153C81.7225 57.6125 82.1333 57.8097 82.4126 57.7769C83.5136 57.6454 84.6146 57.5797 85.7155 57.6125C86.2578 57.629 86.7836 57.6618 87.3258 57.7111C87.4573 57.7276 87.6052 57.744 87.7366 57.7604C87.8352 57.7769 88.3282 57.8426 87.901 57.7769C88.1803 57.8262 88.4597 57.859 88.739 57.9083C89.8071 58.0891 90.8752 58.352 91.9104 58.6806C92.4362 58.845 92.9621 59.0257 93.4715 59.2393C93.5865 59.2886 93.6851 59.3215 93.8001 59.3708C93.8659 59.4036 93.9316 59.4201 93.9973 59.4529C93.6523 59.3215 93.8823 59.4036 93.9644 59.4365C94.2274 59.5515 94.4739 59.6666 94.7368 59.7816C95.7392 60.2581 96.7087 60.784 97.6289 61.3755C98.089 61.6713 98.5327 61.9671 98.9599 62.2957C99.0749 62.3779 99.1899 62.46 99.3049 62.5422C99.3542 62.5915 99.4199 62.6244 99.4692 62.6736C99.2063 62.4765 99.3213 62.5586 99.3871 62.6079C99.6336 62.8051 99.8637 62.9859 100.094 63.1831C100.915 63.8732 101.704 64.6291 102.427 65.4178C102.805 65.8286 103.167 66.2559 103.528 66.6995C103.594 66.7981 103.676 66.8803 103.742 66.9789C103.479 66.6667 103.791 67.0446 103.84 67.1268C104.005 67.3568 104.169 67.5869 104.333 67.8169C105.023 68.8193 105.648 69.871 106.174 70.9555C106.305 71.2348 106.437 71.5142 106.552 71.7771C106.65 72.0072 106.437 71.4978 106.535 71.7442C106.568 71.8264 106.601 71.925 106.634 72.0072C106.683 72.1386 106.732 72.2701 106.782 72.4015C107.012 72.9931 107.209 73.6011 107.373 74.2091C107.554 74.8335 108.261 75.2772 108.885 75.0635C109.181 74.965 109.477 74.7842 109.624 74.5048C109.789 74.1926 109.805 73.8969 109.756 73.5518C109.756 73.5354 109.707 73.2231 109.739 73.4203C109.772 73.6175 109.723 73.3217 109.723 73.3053C109.707 73.1903 109.69 73.0753 109.674 72.9602C109.641 72.6973 109.608 72.4344 109.592 72.1715C109.559 71.7607 109.526 71.3499 109.509 70.9391C109.493 70.2982 109.509 69.6409 109.493 69.0001C109.493 68.1949 109.444 67.4061 109.361 66.601C109.296 65.993 109.214 65.385 109.131 64.777C109.082 64.4155 109.033 64.054 108.984 63.676C108.967 63.6103 108.967 63.5446 108.951 63.4788C108.901 63.1666 108.984 63.676 108.951 63.4788C108.934 63.2981 108.901 63.1338 108.885 62.953C108.737 61.7863 108.606 60.6032 108.573 59.4201C108.556 58.8121 108.556 58.2205 108.606 57.6125C108.622 57.3332 108.638 57.0374 108.688 56.758C108.622 57.1031 108.721 56.5937 108.721 56.528C108.753 56.3637 108.77 56.2158 108.803 56.0515C108.901 55.5421 109.049 55.0491 109.214 54.5726C109.279 54.359 109.361 54.1453 109.444 53.9317C109.476 53.8331 109.509 53.7345 109.559 53.6524C109.575 53.5866 109.608 53.5373 109.624 53.4716C109.739 53.2087 109.575 53.6031 109.624 53.4881C110.019 52.6171 110.462 51.7791 110.988 50.9903C111.136 50.7767 111.35 50.5467 111.481 50.3166C111.465 50.3331 111.3 50.5467 111.432 50.3824C111.481 50.3166 111.531 50.2673 111.58 50.2016C111.662 50.103 111.744 50.0044 111.826 49.9058C112.171 49.5114 112.533 49.1335 112.927 48.772C113.124 48.5912 113.338 48.4105 113.552 48.2297C113.716 48.0983 113.502 48.279 113.486 48.279C113.552 48.2462 113.601 48.1804 113.667 48.1476C113.782 48.0654 113.897 47.9833 113.995 47.9011C114.439 47.5889 114.899 47.326 115.392 47.0795C115.852 46.8494 116.115 46.1757 115.951 45.6827C115.77 45.1405 115.326 44.8118 114.768 44.779C114.193 44.7461 113.617 44.6968 113.042 44.6311C112.911 44.6146 112.779 44.5982 112.648 44.5818C112.582 44.5818 112.516 44.5489 112.451 44.5489C112.779 44.5325 112.566 44.5653 112.467 44.5489C112.171 44.4996 111.876 44.4667 111.596 44.4174C110.479 44.2203 109.378 43.9738 108.31 43.6616C107.768 43.4972 107.242 43.3329 106.716 43.1357C106.469 43.0372 106.223 42.955 105.96 42.8564C105.927 42.84 105.582 42.7085 105.582 42.7085C105.631 42.7249 105.681 42.7578 105.73 42.7742C105.681 42.7578 105.631 42.7249 105.582 42.7085C105.516 42.6756 105.434 42.6428 105.368 42.6099C104.333 42.1498 103.347 41.624 102.394 41.016C101.918 40.7038 101.441 40.3916 100.997 40.0465C100.948 40.0136 100.915 39.9808 100.866 39.9479C100.915 39.9972 101.145 40.1451 100.866 39.9479C100.767 39.8657 100.652 39.7836 100.554 39.7014C100.324 39.5207 100.11 39.3235 99.8965 39.1263C99.4857 38.7483 99.0749 38.354 98.697 37.9432C98.3026 37.5159 97.9575 37.0558 97.5795 36.6286C97.8096 36.8915 97.5303 36.5629 97.481 36.4807C97.3988 36.3657 97.3167 36.2671 97.2345 36.1521C97.0538 35.9056 96.8894 35.6591 96.7251 35.4126C96.3965 34.9196 96.1007 34.4102 95.8049 33.9008C95.2298 32.882 94.7204 31.8304 94.2438 30.7458C94.2274 30.6966 94.1945 30.6473 94.1781 30.598C94.1617 30.5487 94.1288 30.4994 94.1124 30.4501C94.1781 30.6144 94.1945 30.6308 94.1452 30.5158C94.0795 30.3679 94.0138 30.2036 93.9481 30.0557C93.833 29.7599 93.718 29.4641 93.603 29.1684C93.3729 28.5604 93.1429 27.9359 92.9292 27.3279C92.4856 26.0627 92.0747 24.7974 91.6639 23.5321C91.4667 22.9241 90.7931 22.464 90.1522 22.6776C89.4949 22.8584 89.0348 23.5157 89.2484 24.173C90.7273 28.7904 92.272 33.5558 95.1476 37.5159C96.6101 39.5371 98.3683 41.2789 100.439 42.7085C102.394 44.0559 104.58 45.0747 106.831 45.8142C109.394 46.6522 112.073 47.1123 114.768 47.2602C114.554 46.4879 114.357 45.732 114.143 44.9597C110.413 46.8166 107.817 50.5138 106.683 54.474C105.993 56.8895 106.026 59.4037 106.305 61.8685C106.387 62.5586 106.469 63.2324 106.568 63.9225C106.584 64.0868 106.617 64.2347 106.634 64.399C106.65 64.4648 106.65 64.5305 106.667 64.5962C106.716 64.9084 106.634 64.399 106.667 64.6127C106.716 64.9249 106.749 65.2535 106.798 65.5657C106.913 66.5352 107.028 67.5047 107.045 68.4742C107.061 69.2137 107.045 69.9531 107.061 70.6926C107.094 71.8593 107.225 73.026 107.39 74.1926C108.178 73.979 108.967 73.749 109.772 73.5354C108.507 69.0658 105.878 65.0235 102.427 61.9506C98.9763 58.8614 94.704 56.6102 90.1687 55.6735C87.6381 55.1477 85.0089 54.9834 82.4455 55.312C82.6591 56.0843 82.8563 56.8402 83.0699 57.6125C87.1122 55.3942 89.84 51.4012 91.2696 47.0959C92.009 44.8611 92.3377 42.5442 92.5184 40.1944C92.7321 37.5981 92.7978 35.0018 92.6992 32.4055C92.5842 29.4313 92.2719 26.457 91.6639 23.5485C91.5325 22.9241 90.7602 22.4969 90.1522 22.6941C89.4456 22.8748 89.117 23.4992 89.2484 24.173Z" fill="#231F20"/>
</svg>
