<svg width="156" height="38" viewBox="0 0 156 38" fill="none" xmlns="http://www.w3.org/2000/svg">
<g clip-path="url(#clip0_14_438)">
<path fill-rule="evenodd" clip-rule="evenodd" d="M86.6776 24.1593C86.6776 24.4569 86.6283 24.8042 86.579 25.0522C86.1353 26.342 84.952 27.1854 83.5714 27.1854C82.3388 27.1854 81.402 26.4909 81.402 25.0026C81.402 22.7206 83.8673 22.1253 86.7269 22.1253V24.1593H86.6776ZM91.1151 20.1906C91.1151 16.47 89.5373 13.1462 84.1631 13.1462C81.402 13.1462 79.1833 13.94 78 14.6345L78.8875 17.6606C80.268 16.8668 81.7965 16.4204 83.3742 16.3708C86.1353 16.3708 86.579 17.9086 86.579 18.9008V19.1488C80.6132 19.1488 76.866 21.2324 76.866 25.4491C76.866 28.0287 78.7889 30.4595 82.1416 30.4595C84.1631 30.4595 85.8888 29.6658 86.9241 28.3264H87.0228C87.0228 28.3264 87.713 31.2037 91.4602 30.1123C91.263 28.9217 91.1643 27.6319 91.1643 26.1436V20.1906H91.1151ZM0 8.03656L4.53603 26.6893C5.2756 29.7154 6.55752 30.8564 10.3047 30.1123L12.7206 20.1906C13.3123 17.7102 13.756 15.9739 14.1504 13.4439H14.1997C14.4956 15.9739 14.89 17.7102 15.3831 20.1906L16.8622 27.0862C17.4046 29.4674 18.7851 30.9556 22.4829 30.1123L28.2516 8.08617H23.5676L21.5954 17.611C21.0531 20.389 20.5601 22.5718 20.2149 25.1018C19.8698 22.5718 19.426 20.4883 18.8837 17.8094L16.8622 8.08617H11.981L9.76233 17.5614C9.17067 20.4386 8.57901 22.7702 8.18458 25.201H8.13527C7.74083 22.9191 7.24779 19.9922 6.70544 17.2141L4.93047 8.03656H0ZM36.8306 24.1593C36.8306 24.4569 36.8306 24.8042 36.732 25.0522C36.2882 26.342 35.1049 27.1854 33.7244 27.1854C32.4918 27.1854 31.555 26.4909 31.555 25.0026C31.555 22.7206 34.0202 22.1253 36.8799 22.1253V24.1593H36.8306ZM41.3173 20.1906C41.3173 16.47 39.7396 13.1462 34.3654 13.1462C31.6043 13.1462 29.3856 13.94 28.2023 14.6345L29.0898 17.6606C30.4703 16.8668 31.9987 16.4204 33.5765 16.3708C36.3375 16.3708 36.7813 17.9086 36.7813 18.9008V19.1488C30.8154 19.1488 27.0683 21.2324 27.0683 25.4491C27.0683 28.0287 28.9911 30.4595 32.3439 30.4595C34.3654 30.4595 36.091 29.6658 37.1264 28.3264H37.225C37.225 28.3264 37.9153 31.2037 41.6625 30.1123C41.4652 28.9217 41.3666 27.6319 41.3666 26.1436V20.1906H41.3173ZM48.1707 25.3995V8.03656H43.7332V30.0627H48.1707V25.3995ZM104.772 8.08617V24.3081C104.772 26.5405 105.167 28.1279 106.104 29.0705C106.893 29.9138 108.174 30.4595 109.703 30.4595C111.034 30.4595 112.316 30.2115 112.908 29.9635L112.858 26.4413C112.415 26.5901 111.872 26.6397 111.182 26.6397C109.654 26.6397 109.161 25.6971 109.161 23.6632V17.5118H113.056V13.295H109.161V8.03656L104.772 8.08617ZM93.2845 13.5431V30.1123H97.8698V21.6292C97.8698 21.1828 97.9191 20.7859 97.9684 20.389C98.3135 18.6031 99.6448 17.4621 101.617 17.4621C102.159 17.4621 102.504 17.5118 102.948 17.5614V13.1958C102.603 13.1462 102.258 13.0966 101.962 13.0966C100.236 13.0966 98.3135 14.188 97.4753 16.6188H97.3767V13.4935L93.2845 13.5431ZM50.7838 13.5431V30.1123H55.2212V20.389C55.2212 19.9426 55.2705 19.4465 55.4185 19.0496C55.7636 18.0574 56.7004 16.9165 58.1302 16.9165C59.9545 16.9165 60.7927 18.4543 60.7927 20.6371V30.0627H65.2794V20.2402C65.2794 19.7937 65.3287 19.248 65.4766 18.9008C65.8217 17.7102 66.9558 16.8668 68.1884 16.8668C70.0126 16.8668 70.9001 18.3551 70.9001 20.9843V30.0627H75.3868V20.3394C75.3868 15.2298 72.7737 13.1462 69.8647 13.1462C68.5335 13.1462 67.5474 13.4935 66.6106 14.0392C65.8217 14.5353 65.1315 15.2298 64.5398 16.1227H64.4905C63.7509 14.2872 61.9267 13.0966 59.9545 13.1462C57.9823 13.047 56.1087 14.0392 55.1719 15.7755H55.1226V13.5431H50.7838Z" fill="white"/>
<path fill-rule="evenodd" clip-rule="evenodd" d="M137.067 12.799C137.954 12.799 138.694 12.3029 138.793 11.7572L139.631 1.7859C139.631 0.793734 138.497 0 137.067 0C135.637 0 134.503 0.793734 134.503 1.7859L135.391 11.7572C135.44 12.3525 136.179 12.799 137.067 12.799ZM131.693 15.9243C132.136 15.1305 132.087 14.2872 131.643 13.8903L123.508 8.18538C122.67 7.6893 121.388 8.2846 120.698 9.52481C119.958 10.765 120.106 12.2037 120.944 12.6501L129.967 16.8668C130.509 17.0653 131.298 16.6684 131.693 15.9243ZM142.392 15.8747C142.836 16.6684 143.575 17.0653 144.167 16.8172L153.14 12.6005C153.978 12.1044 154.126 10.7154 153.387 9.4752C152.647 8.23499 151.415 7.63969 150.576 8.13577L142.441 13.8903C141.997 14.2872 141.948 15.1305 142.392 15.8747ZM137.067 25.201C137.954 25.201 138.694 25.6971 138.793 26.2428L139.631 36.2141C139.631 37.2063 138.497 38 137.067 38C135.637 38 134.503 37.2063 134.503 36.2141L135.391 26.2428C135.44 25.6475 136.179 25.201 137.067 25.201ZM142.392 22.1253C142.836 21.3316 143.575 20.9347 144.167 21.1332L153.14 25.3499C153.978 25.846 154.126 27.235 153.387 28.4752C152.647 29.7154 151.415 30.3107 150.576 29.8146L142.441 24.1097C141.997 23.7624 141.948 22.8695 142.392 22.1253ZM131.693 22.1253C132.136 22.8695 132.087 23.7624 131.643 24.1593L123.508 29.8642C122.67 30.3603 121.388 29.765 120.698 28.5248C119.958 27.2846 120.106 25.8956 120.944 25.3995L129.967 21.1828C130.509 20.9347 131.298 21.3316 131.693 22.1253ZM155.063 28.9713H155.162C155.26 28.9713 155.359 28.9217 155.359 28.8721C155.359 28.7728 155.31 28.7728 155.211 28.7728H155.112V28.9713H155.063ZM155.063 29.4178H154.866V28.624H155.162C155.31 28.624 155.359 28.624 155.458 28.6736C155.507 28.7232 155.556 28.7728 155.556 28.8225C155.556 28.9217 155.507 28.9713 155.408 29.0209C155.507 29.0705 155.556 29.1201 155.556 29.2193C155.556 29.3681 155.606 29.3681 155.606 29.4178H155.408C155.359 29.3681 155.359 29.3185 155.359 29.2193C155.359 29.1201 155.31 29.1201 155.211 29.1201H155.112L155.063 29.4178ZM155.162 28.376C154.817 28.376 154.57 28.6736 154.57 29.0209C154.57 29.3681 154.817 29.6658 155.162 29.6658C155.507 29.6658 155.753 29.3681 155.753 29.0209C155.803 28.6736 155.507 28.376 155.162 28.376ZM155.162 28.2272C155.606 28.2272 155.951 28.5744 155.951 29.0209C155.951 29.4674 155.606 29.8146 155.162 29.8146C154.718 29.8146 154.324 29.4674 154.324 29.0209C154.373 28.5744 154.718 28.2272 155.162 28.2272Z" fill="#F3B53B"/>
</g>
<defs>
<clipPath id="clip0_14_438">
<rect width="156" height="38" fill="white"/>
</clipPath>
</defs>
</svg>
